<svg xmlns="http://www.w3.org/2000/svg" viewBox="0 0 1200 1200"><path fill="#edba2e" d="m1024 471-1 1-5 4-3 4-2 3-4 5-23 27-2 3-9 10-2 3-1 1-2 3-1 1-7 8-3 4-2 2-14 18-2 3-2 2-2 2v2l-4 5-2-1v4l-2 2h-1l-4 4-2 1-2 1-11 13 1 3-1 1-4 2 2 1-2 4-2 2-2 1q-5 1-2 4l-1 1-4 4-2 2v2l-2 2-1 2h-3l1 1-1 3h-2l-2 2v2q-9 0-11 11v3h-1l-1 1q-5 0-4 4l-1 2q-9 4-11 12l-2 4-2 1-5 6-8 9-13 15v2l-1 1-4 5-17 18-6 10-3 3-2 3-3 3v1l-8 9-2 3-1 1-5 6-10 12-9 11-8 10-13 15v1l-5 6-2 2-4 5v2l-1 1h-1q-9 3-10 12l-4 5-2 2-3 4-1 1-4 5-4 4-3 3-4 5-3 4-1 2-3 3-1 1-3 4-2 2-3 4-1 4-1 1h-1l-2 2-2 2-2 2-2 3-3 6-1 1-5 4q-7 3-8 10l-10 12-3 4-14 15-4 7-1 1-2 3-2 2q-8 4-9 11l-2 2-11 11-6 10q-6 3-7 9l-3 3-3 4-3 4-3 3-2 3-5 5-3 3-12 13q-11 4-16 13l-2 2-5 3-4 3-4 2-7 4-2 1-7 3-2 1-8 1-4 3h-3q-7 0-10 4h-2l-17 2-2 2h-3l-3 1h-31l-5-1h-3l-2-1h-2l-7-2h-2l-5-1-3-1-24-8-5-3h-2l-2-2h-2l-3-2-5-3-3-2-1-1-5-3-9-7-3-2-5-5-4-2-13-14-52-62-28-32-23-25-24-30-21-23-18-22-25-29-22-25-23-26-14-22q-7-9-12-19l-9-29q-6-22-6-46l3-30 5-19 10-24q11-26 31-45l37-35 16-14 16-15 19-20 27-23 17-9 3-2 9-4q9 0 16-6c16-2 31-7 47-6h3l2-1 3 1 2 2 21 3 4 2h3q9 7 19 8l20 10 14 11q2 7 8 7l4 5 34 39 26 30 14 15 33 38 9 13 9 7 3 3 1 1 2 3 4 9v2q-1 16-13 25l-1 2-3 2h-2l-4 1h-4l-3-1h-2l-12-7q-4-10-12-14l-23-26-24-27-3-4-6-7-4-5-3-3-5-5q0-6-5-6l-4-4-1-4-18-20-3-2-2-2-4-5-4-4-3-4-3-3q-2-9-10-10l-4-4-5-3-2-1h-2l-1-1-4-2h-1l-2-3h-3l-2-1-5-2-3-2-5-1-6-1h-3q-8-4-17-4l-30 5-3 4-6 2-2 2-10 4q-8 1-10 7l-25 22-20 18-51 47q-11 11-20 25l-12 22-5 14q-3 14-3 27 0 18 4 34 3 23 17 42 10 14 22 26l25 29 27 31 13 16 15 17 17 20 14 17 32 35 31 36 8 10 22 26 18 21 15 12 1 1q4 9 13 10l2 1q2 4 5 4l18 6 5 1 14 4h2l2 2h26l4-2h9l7-3 5-1 13-4 4-2 2-1 3-2 18-12 10-8q7-2 7-8l13-17 30-33 19-25 29-35 17-22 14-16 27-33 31-39 20-24 2-3 1-1 5-6 5-6 2-3 1-1 4-5 1-1q6-3 7-9l3-3 2-3 24-28 4-9h1l2-1 3-4 2-4 1-1 1-1h1q7-3 8-10l13-15 10-13 11-13 6-7 1-1q10-5 12-15l3-4 1-1 4-5 2-4 3-2 2-3 1-1 7-8 3-4 5-6 4-5 1-1h1l19-23-1-2 2-2 2-1 3-4 1-1 2-1-2-1 4-4q5-1 6-6l2-4 3-2 1-3 1-1 2-1q7-2 6-9l1-1q6-1 6-6l6-7 4-5 4-5 3-4 1-1q7-3 8-10l7-6 21-25 5-9 9-8 1-4v-2l2-2 2-1 2-3 4-6h1l7-8 3-2-2-1 2-2q8-2 10-11l4-5 2-2 4-5 9-11 4-5 5-6 9-9 16-18q2-3-1-3l1-2 1-2 2-2 3-2 4-4-1-2 2-1 3-3 5-6 3-4 11-11q4-6-2-11l-7-6-15-12-4-3-2-2-2-2q-13-17-31-30l-3-1q0-5-5-3l-2-2v-1l-2-2-16-18-45-41q-5-3-6-9-4-16 9-26 13-11 27-2l31 27 19 18 34 30 19 18 20 17q15 16 31 28c19 15 15 36 2 51q-6 5-10 12-7 2-7 8l-1 1-2 2-13 17-15 19-3 4-4 4-4 5-1 1-5 6-4 6-4 5-9 10-12 15-2 3-2 2-2 3-27 33-2 2-5 6-1 1-7 9z"/><path fill="#1b7e59" d="m370 869-1-2-1-2-27-32-6-6-1-1-6-6-1-2-7-8-15-21-8-6-5-6-8-11-24-28-2-1-4-4-3-4-1-3-25-29-12-12-1-1-4-5-3-4-6-7-3-5-20-23-12-12-3-4-5-6v-1l-1-3-10-20q-7-12-10-25c-2-7-7-14-2-22l19-18 24-21 3-3q4 0 4 4-4 19 0 37 7 33 30 56l27 31 10 11 13 16 23 26 24 28 17 21 4 3 8 12 19 22 4 2 14 19 36 42c5 5 6 5 11-1l40-49 21-29 29-38 51-65 28-38 29-37 24-33 35-44 20-27 30-38 30-41 25-32 22-29 24-32 33-43 32-40 49-66 27-34 4 5q6 15 19 24l2 2c10 10 10 7 1 18l-6 12-2 1-30 38-22 29q-9 9 2 13l2 1 12 10h1l6 5 6 5 2 4q3 5-1 10-4 4-10 1l-14-11-14-9q-6-5-8-5l-15 19-2 3-12 14-18 24q-2 4-1 7l12 11 40 30 3 4q3 5-1 10-4 4-10 1l-19-15-14-10h-1q-8-12-21-17l-3 1-6 5-18 23-22 30q-5 5 1 8l12 10 19 17q2 3 1 6-1 5-8 5l-7-4-12-7-1-1h-1l-12-12q-6-6-11 3l-2 1-9 14v1l-7 6-16 22-12 17 6 6 27 22q5 4 2 10-4 6-11 2l-6-4-11-7-2-1-2-2-1-1-8-7q-6-5-10 1l-19 25-25 33q-3 4 2 5l13 10 11 11 30 23q4 6 1 12-5 4-11 1l-5-4-8-5h-1l-8-9-15-12-14-10c-6-4-7-5-12 1l-2 2-19 25-22 28q-5 6 2 11l14 10 16 14q4 5 0 10-5 4-10 0l-30-23q-6-4-9 1l-9 11-8 9-26 35c-2 2-5 5-1 8l6 5 3 3h1l18 17 28 22q4 5 0 9-3 4-9 3l-6-4-31-24-15-12c-9-6-12-6-17 5v1l-18 21-7 11-17 21 1 3 14 10 1 1 15 13q4 3 6 7 1 6-5 9-5 2-9-2l-14-9-9-7-9-8q-5-2-5 2l-7 10-45 55c-7 9-30 10-39-1l-13-15-14-14z"/><path fill="#e4c465" d="M426 1109h8l2-1h3l6 1-17 3q-32 2-62-9-45-13-77-48l-53-62-31-35-48-55-40-47-47-55-27-32q-17-22-26-49a180 180 0 0 1 55-196l73-68q21-21 47-35a138 138 0 0 1 77-14h-3c-16-1-31 4-47 6l-16 6-9 4-3 2-17 9-27 23-19 20-16 15-16 14-37 35q-20 19-31 45l-10 24-5 19-3 30q0 24 6 46l9 29q5 10 12 19l14 22 23 26 22 25 25 29 18 22 21 23 24 30 23 25 28 32 52 62 13 14 4 2 17 14 5 3 1 1 3 2 14 7 5 3 10 3 14 5 3 1 5 1h2l7 2h2l2 1h3l5 1z"/><path fill="#dbc05c" d="m207 474 10-4v1l-17 12-5 5h-3l-21 20-35 32-8 9v2q-8 4-13 10-16 13-28 29-37 54-15 116l11 20 9 14 4 1 2 5 33 39 12 12q3 10 13 15l2 4 31 36 14 16 9 11 5 3 3 6 16 19 27 31 14 15 36 43 11 11 9 13 5 2 2 3 1 3-15-12-18-21-22-26-8-10-31-36-32-35-14-17-17-20-15-17-13-16-27-31-25-29q-12-11-22-26-14-19-17-42-3-16-4-34 0-14 3-27l5-14 12-22q9-14 20-25l51-47 20-18 25-22z"/><path fill="#467f4d" d="m362 774 23 26 30 35 3 3 10-12 120-157 124-162 113-147 90-118 105-133q-4 16 9 28l21 22q-2 0-3 2l-15 19 6-12c9-11 9-8-1-18l-2-2q-13-9-19-24l-4-5-27 34-49 66-32 40-33 43-24 32-22 29-25 32-30 41-30 38-20 27-35 44-24 33-29 37-28 38-51 65-29 38-21 29-40 49c-5 6-6 6-11 1l-36-42z"/></svg>